ply
format ascii 1.0
comment Created in Blender version 4.2.1 LTS
element vertex 559
property float x
property float y
property float z
property float s
property float t
element face 512
property list uchar uint vertex_indices
end_header
0 0.55557024 0.8314696 0.81243753 0.25004998
6.7055225e-08 0.38268322 0.9238795 0.8749251 0.25005004
0.07465784 0.3753303 0.9238795 0.874925 0.28129372
0.10838638 0.5448951 0.8314696 0.81243753 0.28129372
0 0.8314696 -0.55557024 0.31253755 0.25004998
5.9604645e-08 0.923879 -0.38268346 0.37502494 0.25004998
0.18023995 0.9061274 -0.38268346 0.375025 0.28129375
0.16221167 0.8154931 -0.55557024 0.31253743 0.28129375
8.940697e-08 0.7071066 0.70710677 0.74995005 0.25004998
0.13794969 0.6935199 0.70710677 0.74995 0.28129372
8.940697e-08 0.7071066 -0.70710677 0.25005 0.25004998
0.13794969 0.6935199 -0.70710677 0.25005 0.28129375
0 0.8314696 0.55557024 0.6874625 0.25004998
0.16221167 0.8154931 0.55557024 0.6874625 0.28129372
2.1606684e-07 0.5555695 -0.8314696 0.18756232 0.25005007
0.10838638 0.5448951 -0.8314696 0.1875625 0.28129375
5.9604645e-08 0.923879 0.38268346 0.62497514 0.25004998
0.18023995 0.9061274 0.38268346 0.624975 0.28129372
6.7055225e-08 0.38268322 -0.9238795 0.125075 0.25005007
0.07465784 0.3753303 -0.9238795 0.12507506 0.28129375
0 0.98078525 0.19509032 0.5624875 0.25004998
0.19134171 0.9619397 0.19509032 0.5624875 0.28129372
1.4901161e-08 0.1950901 -0.98078525 0.06258737 0.25005
0.038060233 0.19134171 -0.98078525 0.06258744 0.28129375
0 1 0 0.5 0.25004998
0.19509032 0.98078525 0 0.5 0.28129372
1.4901161e-08 0.1950901 0.98078525 0.9374126 0.25004995
0 0 1 0.99990004 0.26567185
0.038060233 0.19134171 0.98078525 0.93741256 0.28129372
0 0 -1 9.99943e-05 0.26567188
0 0.98078525 -0.19509032 0.43751252 0.25004998
0.19134171 0.9619397 -0.19509032 0.43751252 0.28129372
0.07465783 0.18023995 0.98078525 0.93741256 0.31253746
0.14644662 0.3535534 0.9238795 0.874925 0.31253746
0.37533027 0.9061274 -0.19509032 0.43751252 0.3125375
0.35355335 0.85355335 -0.38268346 0.375025 0.3125375
0.21260753 0.5132799 0.8314696 0.81243753 0.31253746
0.31818962 0.7681776 -0.55557024 0.31253743 0.3125375
0.27059805 0.65328145 0.70710677 0.74995 0.31253746
0.27059805 0.65328145 -0.70710677 0.25005 0.3125375
0.31818962 0.7681776 0.55557024 0.6874625 0.31253746
0.21260753 0.5132799 -0.8314696 0.1875625 0.3125375
0.35355335 0.85355335 0.38268346 0.624975 0.3125375
0.14644662 0.3535534 -0.9238795 0.12507506 0.3125375
0.37533027 0.9061274 0.19509032 0.5624875 0.3125375
0.07465783 0.18023995 -0.98078525 0.06258744 0.3125375
0.38268343 0.92387944 0 0.5 0.3125375
0 0 1 0.99990004 0.2969156
0 0 -1 9.999566e-05 0.29691562
0.4619397 0.6913416 0.55557024 0.6874625 0.34378123
0.5132799 0.7681777 0.38268346 0.624975 0.34378123
0.30865827 0.4619397 -0.8314696 0.1875625 0.34378123
0.21260753 0.31818965 -0.9238795 0.12507506 0.34378126
0.5448951 0.8154931 0.19509032 0.5624875 0.34378123
0.10838637 0.16221166 -0.98078525 0.06258744 0.34378126
0.55557024 0.8314695 0 0.5 0.34378123
0 0 1 0.99990004 0.32815933
0.10838637 0.16221166 0.98078525 0.93741256 0.3437812
0 0 -1 9.999703e-05 0.3281594
0.5448951 0.8154931 -0.19509032 0.43751252 0.34378123
0.21260753 0.31818965 0.9238795 0.874925 0.3437812
0.5132799 0.7681777 -0.38268346 0.375025 0.34378123
0.30865827 0.4619397 0.8314696 0.81243753 0.34378123
0.4619397 0.6913416 -0.55557024 0.31253743 0.34378123
0.39284748 0.5879378 0.70710677 0.74995 0.34378123
0.39284748 0.5879378 -0.70710677 0.25005 0.34378123
0.6935199 0.69351983 -0.19509032 0.43751252 0.37502497
0.6532814 0.65328145 -0.38268346 0.375025 0.375025
0.27059805 0.27059802 0.9238795 0.874925 0.37502497
0.39284745 0.3928474 0.8314696 0.81243753 0.37502497
0.5879377 0.58793765 -0.55557024 0.31253746 0.375025
0.5 0.5 0.70710677 0.74995 0.37502497
0.5 0.5 -0.70710677 0.25005 0.375025
0.5879377 0.58793765 0.55557024 0.68746257 0.37502497
0.39284745 0.3928474 -0.8314696 0.18756251 0.375025
0.6532814 0.65328145 0.38268346 0.624975 0.37502497
0.27059805 0.27059802 -0.9238795 0.125075 0.375025
0.6935199 0.69351983 0.19509032 0.56248754 0.37502497
0.13794968 0.13794966 -0.98078525 0.06258744 0.375025
0.70710677 0.7071066 0 0.5 0.37502497
0 0 1 0.99990004 0.35940307
0.13794968 0.13794966 0.98078525 0.93741256 0.37502497
0 0 -1 9.99984e-05 0.35940313
0.46193972 0.3086582 -0.8314696 0.18756251 0.40626875
0.31818965 0.2126075 -0.9238795 0.125075 0.40626875
0.7681776 0.51328 0.38268346 0.624975 0.40626872
0.8154931 0.544895 0.19509032 0.56248754 0.40626875
0.16221166 0.10838635 -0.98078525 0.06258744 0.40626875
0.83146954 0.55557 0 0.5 0.40626875
0 0 1 0.99990004 0.39064685
0.16221166 0.10838635 0.98078525 0.93741256 0.40626872
0 0 -1 9.999976e-05 0.39064687
0.8154931 0.544895 -0.19509032 0.43751252 0.40626875
0.31818965 0.2126075 0.9238795 0.874925 0.40626872
0.7681776 0.51328 -0.38268346 0.375025 0.40626875
0.46193972 0.3086582 0.8314696 0.81243753 0.40626872
0.69134164 0.46193963 -0.55557024 0.31253746 0.40626875
0.5879378 0.39284748 0.70710677 0.74995 0.40626872
0.5879378 0.39284748 -0.70710677 0.25005 0.40626875
0.69134164 0.46193963 0.55557024 0.6874625 0.40626872
0.35355335 0.14644659 0.9238795 0.874925 0.43751246
0.5132799 0.21260746 0.8314696 0.81243753 0.4375125
0.8535533 0.3535534 -0.38268346 0.375025 0.4375125
0.7681776 0.3181895 -0.55557024 0.31253746 0.4375125
0.65328145 0.27059805 0.70710677 0.74995005 0.4375125
0.65328145 0.27059805 -0.70710677 0.25005 0.4375125
0.7681776 0.3181895 0.55557024 0.6874625 0.4375125
0.5132799 0.21260746 -0.8314696 0.18756251 0.4375125
0.8535533 0.3535534 0.38268346 0.624975 0.4375125
0.35355335 0.14644659 -0.9238795 0.12507501 0.43751252
0.90612733 0.37533015 0.19509032 0.56248754 0.4375125
0.18023992 0.07465781 -0.98078525 0.06258745 0.43751252
0.9238794 0.38268322 0 0.5 0.4375125
0 0 1 0.99990004 0.4218906
0.18023992 0.07465781 0.98078525 0.93741256 0.43751246
0 0 -1 0.000100001125 0.42189065
0.90612733 0.37533015 -0.19509032 0.43751252 0.4375125
0.90612733 0.18023999 0.38268346 0.6249751 0.46875623
0.96193963 0.19134161 0.19509032 0.56248754 0.46875623
0.37533024 0.07465781 -0.9238795 0.12507501 0.46875626
0.19134167 0.038060214 -0.98078525 0.06258745 0.46875626
0.9807851 0.19509013 0 0.5 0.46875623
0 0 1 0.99990004 0.45313433
0.19134167 0.038060214 0.98078525 0.93741256 0.46875623
0 0 -1 0.00010000249 0.4531344
0.96193963 0.19134161 -0.19509032 0.43751252 0.46875623
0.37533024 0.07465781 0.9238795 0.874925 0.46875623
0.90612733 0.18023999 -0.38268346 0.375025 0.46875623
0.54489505 0.108386315 0.8314696 0.81243753 0.46875623
0.815493 0.16221157 -0.55557024 0.31253746 0.46875626
0.6935199 0.1379497 0.70710677 0.74995005 0.46875623
0.6935199 0.1379497 -0.70710677 0.25005 0.46875626
0.815493 0.16221157 0.55557024 0.68746257 0.46875623
0.54489505 0.108386315 -0.8314696 0.18756251 0.46875626
0.92387944 4.4703484e-08 -0.38268346 0.375025 0.5
0.8314694 -8.940697e-08 -0.55557024 0.31253746 0.5
0.5555701 -5.2154064e-08 0.8314696 0.81243753 0.5
0.7071067 1.4901161e-08 0.70710677 0.74995005 0.49999997
0.7071067 1.4901161e-08 -0.70710677 0.25005 0.5
0.8314694 -8.940697e-08 0.55557024 0.68746257 0.5
0.5555701 -5.2154064e-08 -0.8314696 0.18756251 0.50000006
0.92387944 4.4703484e-08 0.38268346 0.624975 0.49999997
0.3826834 -2.2351742e-08 -0.9238795 0.12507501 0.5
0.98078513 -8.940697e-08 0.19509032 0.56248754 0.5
0.19509026 -1.1175871e-08 -0.98078525 0.06258745 0.5
0.9999997 -1.6391277e-07 0 0.5 0.5
0 0 1 0.99990004 0.4843781
0.19509026 -1.1175871e-08 0.98078525 0.93741256 0.49999997
0 0 -1 0.000100003854 0.48437813
0.98078513 -8.940697e-08 -0.19509032 0.43751252 0.5
0.3826834 -2.2351742e-08 0.9238795 0.874925 0.49999997
0.37533024 -0.07465785 -0.9238795 0.12507501 0.53124374
0.19134165 -0.038060233 -0.98078525 0.06258745 0.53124374
0.9619396 -0.19134177 0.19509032 0.56248754 0.53124374
0.9807849 -0.19509043 0 0.5 0.53124374
0 0 1 0.99990004 0.51562184
0.19134165 -0.038060233 0.98078525 0.9374126 0.53124374
0 0 -1 0.00010000522 0.5156219
0.9619396 -0.19134177 -0.19509032 0.43751252 0.53124374
0.37533024 -0.07465785 0.9238795 0.874925 0.53124374
0.90612733 -0.1802399 -0.38268346 0.375025 0.53124374
0.544895 -0.108386405 0.8314696 0.81243753 0.53124374
0.8154929 -0.16221173 -0.55557024 0.31253746 0.53124374
0.69351983 -0.13794966 0.70710677 0.74995005 0.53124374
0.69351983 -0.13794966 -0.70710677 0.25005 0.53124374
0.8154929 -0.16221173 0.55557024 0.68746257 0.53124374
0.544895 -0.108386405 -0.8314696 0.18756251 0.53124374
0.90612733 -0.1802399 0.38268346 0.6249751 0.53124374
0.7681775 -0.31818965 -0.55557024 0.31253746 0.56248754
0.6532814 -0.270598 -0.70710677 0.25005 0.5624875
0.6532814 -0.270598 0.70710677 0.74995005 0.5624875
0.7681775 -0.31818965 0.55557024 0.68746257 0.5624875
0.5132798 -0.21260753 -0.8314696 0.18756251 0.56248754
0.8535533 -0.3535533 0.38268346 0.6249751 0.5624875
0.35355335 -0.14644662 -0.9238795 0.12507501 0.5624875
0.9061272 -0.3753303 0.19509032 0.56248754 0.5624875
0.18023989 -0.07465782 -0.98078525 0.06258745 0.5624875
0.9238791 -0.38268346 0 0.5 0.56248754
0 0 1 0.99990004 0.5468656
0.18023989 -0.07465782 0.98078525 0.9374126 0.5624875
0 0 -1 0.00010000659 0.54686564
0.9061272 -0.3753303 -0.19509032 0.43751252 0.5624875
0.35355335 -0.14644662 0.9238795 0.874925 0.5624875
0.8535533 -0.3535533 -0.38268346 0.375025 0.5624875
0.5132798 -0.21260753 0.8314696 0.8124376 0.5624875
0 0 1 0.99990004 0.5781093
0.1622116 -0.10838634 0.98078525 0.9374126 0.5937312
0 0 -1 0.00010000796 0.5781094
0.1622116 -0.10838634 -0.98078525 0.06258745 0.5937313
0.8314691 -0.5555702 0 0.5 0.5937313
0.8154929 -0.54489505 -0.19509032 0.43751252 0.5937312
0.3181896 -0.21260752 0.9238795 0.874925 0.5937312
0.7681776 -0.51327986 -0.38268346 0.375025 0.5937312
0.46193957 -0.30865824 0.8314696 0.8124376 0.5937312
0.69134146 -0.4619397 -0.55557024 0.31253746 0.5937312
0.5879377 -0.39284742 0.70710677 0.74995005 0.5937312
0.5879377 -0.39284742 -0.70710677 0.25005 0.5937312
0.69134146 -0.4619397 0.55557024 0.68746257 0.5937312
0.46193957 -0.30865824 -0.8314696 0.18756251 0.5937312
0.7681776 -0.51327986 0.38268346 0.6249751 0.5937312
0.3181896 -0.21260752 -0.9238795 0.12507501 0.5937313
0.8154929 -0.54489505 0.19509032 0.56248754 0.5937312
0.49999994 -0.49999994 0.70710677 0.74995005 0.62497497
0.58793753 -0.58793765 0.55557024 0.68746257 0.62497497
0.49999994 -0.49999994 -0.70710677 0.25005 0.624975
0.39284727 -0.39284742 -0.8314696 0.18756251 0.624975
0.6532814 -0.65328133 0.38268346 0.6249751 0.62497497
0.27059796 -0.27059802 -0.9238795 0.12507501 0.624975
0.6935197 -0.69351983 0.19509032 0.56248754 0.62497497
0.13794962 -0.13794963 -0.98078525 0.062587455 0.624975
0.70710623 -0.70710665 0 0.5 0.624975
0 0 1 0.99990004 0.60935307
0.13794962 -0.13794963 0.98078525 0.9374126 0.62497497
0 0 -1 0.00010000932 0.6093531
0.6935197 -0.69351983 -0.19509032 0.43751252 0.62497497
0.27059796 -0.27059802 0.9238795 0.874925 0.62497497
0.6532814 -0.65328133 -0.38268346 0.37502503 0.624975
0.39284727 -0.39284742 0.8314696 0.8124376 0.624975
0.58793753 -0.58793765 -0.55557024 0.31253746 0.624975
0.5555697 -0.83146936 0 0.5 0.6562188
0.5448949 -0.815493 -0.19509032 0.43751252 0.65621877
0.108386315 -0.1622116 0.98078525 0.9374126 0.6562187
0.21260744 -0.31818962 0.9238795 0.874925 0.6562187
0.5132799 -0.76817757 -0.38268346 0.37502503 0.65621877
0.3086581 -0.46193966 0.8314696 0.8124376 0.6562187
0.46193954 -0.6913415 -0.55557024 0.31253746 0.65621877
0.39284742 -0.5879377 0.70710677 0.74995005 0.6562187
0.39284742 -0.5879377 -0.70710677 0.25005 0.65621877
0.46193954 -0.6913415 0.55557024 0.68746257 0.6562187
0.3086581 -0.46193966 -0.8314696 0.18756251 0.65621877
0.5132799 -0.76817757 0.38268346 0.6249751 0.6562187
0.21260744 -0.31818962 -0.9238795 0.12507501 0.65621877
0.5448949 -0.815493 0.19509032 0.56248754 0.65621877
0.108386315 -0.1622116 -0.98078525 0.062587455 0.65621877
0 0 1 0.99990004 0.64059687
0 0 -1 0.000100010686 0.64059687
0.270598 -0.6532814 -0.70710677 0.25005 0.6874625
0.21260735 -0.5132798 -0.8314696 0.18756251 0.6874625
0.31818944 -0.7681775 0.55557024 0.68746257 0.6874625
0.35355335 -0.8535532 0.38268346 0.6249751 0.6874625
0.14644653 -0.35355332 -0.9238795 0.12507501 0.6874625
0.37533003 -0.9061272 0.19509032 0.56248754 0.6874625
0.07465778 -0.18023986 -0.98078525 0.062587455 0.6874625
0.38268295 -0.92387915 0 0.5 0.6874625
0 0 1 0.99990004 0.6718406
0.07465778 -0.18023986 0.98078525 0.9374126 0.68746245
0 0 -1 0.000100012054 0.67184067
0.37533003 -0.9061272 -0.19509032 0.43751252 0.6874625
0.14644653 -0.35355332 0.9238795 0.874925 0.68746245
0.35355335 -0.8535532 -0.38268346 0.37502503 0.6874625
0.21260735 -0.5132798 0.8314696 0.8124376 0.6874625
0.31818944 -0.7681775 -0.55557024 0.31253746 0.6874625
0.270598 -0.6532814 0.70710677 0.74995005 0.6874625
0.038060203 -0.1913416 0.98078525 0.9374126 0.71870625
0.07465776 -0.37533018 0.9238795 0.874925 0.71870625
0.19134152 -0.96193945 -0.19509032 0.43751252 0.71870625
0.18023995 -0.9061272 -0.38268346 0.37502503 0.71870625
0.10838623 -0.5448949 0.8314696 0.8124376 0.71870625
0.16221152 -0.81549287 -0.55557024 0.31253746 0.71870625
0.13794966 -0.69351983 0.70710677 0.74995005 0.71870625
0.13794966 -0.69351983 -0.70710677 0.25005 0.71870625
0.16221152 -0.81549287 0.55557024 0.68746257 0.71870625
0.10838623 -0.5448949 -0.8314696 0.18756253 0.7187063
0.18023995 -0.9061272 0.38268346 0.6249751 0.71870625
0.07465776 -0.37533018 -0.9238795 0.12507501 0.71870625
0.19134152 -0.96193945 0.19509032 0.56248754 0.71870625
0.038060203 -0.1913416 -0.98078525 0.062587455 0.71870625
0.1950899 -0.9807848 0 0.5 0.7187063
0 0 1 0.99990004 0.70308435
0 0 -1 0.000100013414 0.7030844
-1.0430813e-07 -0.8314693 0.55557024 0.68746257 0.74995
2.9802322e-08 -0.92387927 0.38268346 0.6249751 0.74995
-9.685755e-08 -0.55556995 -0.8314696 0.18756253 0.74995005
-5.2154064e-08 -0.38268334 -0.9238795 0.12507501 0.74995005
-1.3411045e-07 -0.98078495 0.19509032 0.56248754 0.74995005
-7.450581e-09 -0.19509019 -0.98078525 0.062587455 0.74995
-3.2782555e-07 -0.99999934 0 0.5 0.74995005
0 0 1 0.99990004 0.7343281
-7.450581e-09 -0.19509019 0.98078525 0.9374126 0.74995
0 0 -1 0.00010001478 0.73432815
-1.3411045e-07 -0.98078495 -0.19509032 0.43751252 0.74995005
-5.2154064e-08 -0.38268334 0.9238795 0.874925 0.74995
2.9802322e-08 -0.92387927 -0.38268346 0.37502503 0.74995
-9.685755e-08 -0.55556995 0.8314696 0.8124376 0.74995
-1.0430813e-07 -0.8314693 -0.55557024 0.31253746 0.74995
-1.4901161e-08 -0.70710665 0.70710677 0.74995005 0.74995
-1.4901161e-08 -0.70710665 -0.70710677 0.25005 0.74995
-0.19134179 -0.9619394 -0.19509032 0.43751252 0.78119373
-0.18023987 -0.90612715 -0.38268346 0.37502503 0.78119373
-0.074657865 -0.37533018 0.9238795 0.874925 0.78119373
-0.10838642 -0.5448948 0.8314696 0.8124376 0.78119373
-0.16221172 -0.8154928 -0.55557024 0.31253746 0.78119373
-0.13794968 -0.6935198 0.70710677 0.74995005 0.78119373
-0.13794968 -0.6935198 -0.70710677 0.25005004 0.78119373
-0.16221172 -0.8154928 0.55557024 0.68746257 0.78119373
-0.10838642 -0.5448948 -0.8314696 0.18756253 0.78119373
-0.18023987 -0.90612715 0.38268346 0.6249751 0.78119373
-0.074657865 -0.37533018 -0.9238795 0.12507503 0.78119373
-0.19134179 -0.9619394 0.19509032 0.56248754 0.78119373
-0.038060214 -0.19134158 -0.98078525 0.06258746 0.7811938
-0.19509052 -0.98078454 0 0.50000006 0.7811938
0 0 1 0.99990004 0.76557183
-0.038060214 -0.19134158 0.98078525 0.9374126 0.78119373
0 0 -1 0.00010001615 0.7655719
-0.2126075 -0.5132796 -0.8314696 0.18756253 0.81243753
-0.14644662 -0.3535533 -0.9238795 0.12507503 0.81243753
-0.35355324 -0.8535531 0.38268346 0.6249751 0.8124375
-0.37533027 -0.90612704 0.19509032 0.56248754 0.8124375
-0.07465778 -0.18023983 -0.98078525 0.06258746 0.81243753
-0.3826835 -0.9238787 0 0.50000006 0.81243753
0 0 1 0.99990004 0.7968156
-0.07465778 -0.18023983 0.98078525 0.9374126 0.8124375
0 0 -1 0.00010001751 0.79681563
-0.37533027 -0.90612704 -0.19509032 0.43751252 0.8124375
-0.14644662 -0.3535533 0.9238795 0.874925 0.8124375
-0.35355324 -0.8535531 -0.38268346 0.37502503 0.8124375
-0.2126075 -0.5132796 0.8314696 0.8124376 0.81243753
-0.31818962 -0.7681774 -0.55557024 0.31253746 0.8124375
-0.270598 -0.65328133 0.70710677 0.74995005 0.8124375
-0.270598 -0.65328133 -0.70710677 0.25005004 0.81243753
-0.31818962 -0.7681774 0.55557024 0.68746257 0.8124375
-0.51327974 -0.7681775 -0.38268346 0.37502503 0.8436812
-0.46193963 -0.69134134 -0.55557024 0.31253746 0.8436813
-0.30865818 -0.4619394 0.8314696 0.81243765 0.8436813
-0.39284742 -0.58793765 0.70710677 0.74995005 0.8436812
-0.39284742 -0.58793765 -0.70710677 0.25005004 0.8436812
-0.46193963 -0.69134134 0.55557024 0.68746257 0.8436813
-0.30865818 -0.4619394 -0.8314696 0.18756247 0.8436813
-0.51327974 -0.7681775 0.38268346 0.6249751 0.8436812
-0.2126075 -0.31818953 -0.9238795 0.12507503 0.8436813
-0.54489505 -0.81549275 0.19509032 0.56248754 0.8436813
-0.1083863 -0.16221155 -0.98078525 0.06258746 0.8436812
-0.5555701 -0.83146876 0 0.50000006 0.84368134
0 0 1 0.99990004 0.8280594
-0.1083863 -0.16221155 0.98078525 0.9374126 0.8436812
0 0 -1 0.00010001888 0.8280594
-0.54489505 -0.81549275 -0.19509032 0.43751252 0.8436813
-0.2126075 -0.31818953 0.9238795 0.874925 0.8436813
-0.270598 -0.27059793 -0.9238795 0.12507503 0.874925
-0.13794959 -0.13794957 -0.98078525 0.06258746 0.874925
-0.6935198 -0.69351953 0.19509032 0.56248754 0.874925
-0.7071065 -0.70710593 0 0.50000006 0.8749251
0 0 1 0.99990004 0.8593031
-0.13794959 -0.13794957 0.98078525 0.9374126 0.87492496
0 0 -1 0.00010002025 0.8593032
-0.6935198 -0.69351953 -0.19509032 0.43751255 0.874925
-0.270598 -0.27059793 0.9238795 0.874925 0.87492496
-0.6532812 -0.6532813 -0.38268346 0.37502503 0.874925
-0.3928473 -0.39284712 0.8314696 0.81243765 0.874925
-0.5879376 -0.5879374 -0.55557024 0.31253746 0.874925
-0.4999999 -0.49999988 0.70710677 0.74995005 0.87492496
-0.4999999 -0.49999988 -0.70710677 0.25005004 0.874925
-0.5879376 -0.5879374 0.55557024 0.6874626 0.874925
-0.3928473 -0.39284712 -0.8314696 0.18756247 0.874925
-0.6532812 -0.6532813 0.38268346 0.6249751 0.874925
-0.4619395 -0.30865794 0.8314696 0.81243765 0.90616876
-0.58793765 -0.39284736 0.70710677 0.7499501 0.90616876
-0.69134146 -0.46193942 -0.55557024 0.31253746 0.90616876
-0.58793765 -0.39284736 -0.70710677 0.25005004 0.90616876
-0.69134146 -0.46193942 0.55557024 0.6874626 0.90616876
-0.4619395 -0.30865794 -0.8314696 0.18756247 0.9061688
-0.76817745 -0.5132798 0.38268346 0.62497514 0.90616876
-0.31818956 -0.21260741 -0.9238795 0.12507503 0.90616876
-0.8154929 -0.5448947 0.19509032 0.56248754 0.90616876
-0.16221155 -0.10838628 -0.98078525 0.06258746 0.90616876
-0.8314691 -0.5555694 0 0.50000006 0.9061688
0 0 1 0.99990004 0.89054686
-0.16221155 -0.10838628 0.98078525 0.9374126 0.90616876
0 0 -1 0.000100021614 0.8905469
-0.8154929 -0.5448947 -0.19509032 0.43751255 0.90616876
-0.31818956 -0.21260741 0.9238795 0.874925 0.90616876
-0.76817745 -0.5132798 -0.38268346 0.37502497 0.90616876
-0.90612715 -0.37532988 0.19509032 0.56248754 0.9374125
-0.92387885 -0.38268268 0 0.50000006 0.93741256
0 0 1 0.99990004 0.9217906
-0.18023981 -0.07465775 0.98078525 0.9374126 0.9374125
0 0 -1 0.000100022975 0.92179066
-0.18023981 -0.07465775 -0.98078525 0.06258746 0.9374125
-0.90612715 -0.37532988 -0.19509032 0.43751255 0.9374125
-0.35355327 -0.14644651 0.9238795 0.874925 0.9374125
-0.85355306 -0.35355327 -0.38268346 0.37502497 0.9374125
-0.5132796 -0.21260723 0.8314696 0.81243765 0.9374125
-0.7681774 -0.31818932 -0.55557024 0.3125374 0.9374125
-0.65328133 -0.27059796 0.70710677 0.74995005 0.93741244
-0.65328133 -0.27059796 -0.70710677 0.25005004 0.9374125
-0.7681774 -0.31818932 0.55557024 0.6874627 0.9374125
-0.5132796 -0.21260723 -0.8314696 0.18756247 0.9374125
-0.85355306 -0.35355327 0.38268346 0.62497514 0.93741244
-0.35355327 -0.14644651 -0.9238795 0.12507503 0.9374125
-0.81549275 -0.16221143 -0.55557024 0.31253746 0.9686563
-0.6935198 -0.13794963 -0.70710677 0.25005004 0.96865624
-0.6935198 -0.13794963 0.70710677 0.74995005 0.96865624
-0.81549275 -0.16221143 0.55557024 0.6874626 0.9686563
-0.5448947 -0.10838615 -0.8314696 0.18756247 0.9686563
-0.9061271 -0.18023989 0.38268346 0.6249751 0.96865624
-0.37533012 -0.07465775 -0.9238795 0.12507503 0.9686563
-0.9619394 -0.19134139 0.19509032 0.56248754 0.9686563
-0.19134155 -0.03806018 -0.98078525 0.06258747 0.96865624
-0.9807844 -0.1950897 0 0.50000006 0.9686563
0 0 1 0.99990004 0.95303434
-0.19134155 -0.03806018 0.98078525 0.9374126 0.96865624
0 0 -1 0.00010002434 0.95303434
-0.9619394 -0.19134139 -0.19509032 0.43751255 0.9686563
-0.37533012 -0.07465775 0.9238795 0.87492514 0.96865624
-0.9061271 -0.18023989 -0.38268346 0.37502503 0.96865624
-0.5448947 -0.10838615 0.8314696 0.81243765 0.96865624
0 0 1 0.99990004 0.9842781
-0.19509014 1.8626451e-08 0.98078525 0.9374126 0.9999
0 0 -1 0.00010002571 0.98427814
-0.19509014 1.8626451e-08 -0.98078525 0.06258747 0.99990004
-0.99999905 4.4703484e-07 0 0.50000006 0.9999
-0.98078483 2.682209e-07 -0.19509032 0.43751255 0.9999
-0.38268325 5.2154064e-08 0.9238795 0.87492514 0.9999
-0.92387915 1.4901161e-08 -0.38268346 0.37502497 0.9999
-0.55556977 1.4901161e-07 0.8314696 0.81243765 0.9999
-0.8314692 1.6391277e-07 -0.55557024 0.31253746 0.9999
-0.7071066 2.9802322e-08 0.70710677 0.7499501 0.9999
-0.7071066 2.9802322e-08 -0.70710677 0.25005004 0.9999
-0.8314692 1.6391277e-07 0.55557024 0.6874626 0.9999
-0.55556977 1.4901161e-07 -0.8314696 0.18756247 0.99990004
-0.92387915 1.4901161e-08 0.38268346 0.62497514 0.9999
-0.38268325 5.2154064e-08 -0.9238795 0.12507503 0.99990004
-0.98078483 2.682209e-07 0.19509032 0.56248754 0.9999
-0.8314692 1.6391277e-07 0.55557024 0.68746257 9.996654e-05
-0.7071066 2.9802322e-08 0.70710677 0.74995005 9.9963814e-05
-0.6935197 0.13794969 0.70710677 0.74995005 0.031343713
-0.81549263 0.16221176 0.55557024 0.6874626 0.031343777
-0.55556977 1.4901161e-07 -0.8314696 0.18756242 9.998839e-05
-0.7071066 2.9802322e-08 -0.70710677 0.25004998 9.9985664e-05
-0.6935197 0.13794969 -0.70710677 0.25004998 0.031343736
-0.54489464 0.108386435 -0.8314696 0.18756244 0.0313438
-0.92387915 1.4901161e-08 0.38268346 0.62497514 9.996927e-05
-0.90612704 0.1802399 0.38268346 0.62497514 0.03134372
-0.38268325 5.2154064e-08 -0.9238795 0.12507498 9.999113e-05
-0.3753301 0.07465785 -0.9238795 0.12507498 0.031343803
-0.98078483 2.682209e-07 0.19509032 0.5624875 9.997201e-05
-0.9619392 0.19134189 0.19509032 0.56248754 0.031343784
-0.19509014 1.8626451e-08 -0.98078525 0.062587425 9.999386e-05
-0.19134153 0.038060218 -0.98078525 0.062587425 0.031343743
-0.99999905 4.4703484e-07 0 0.5 9.9974735e-05
-0.98078424 0.19509058 0 0.5 0.031343844
-0.19509014 1.8626451e-08 0.98078525 0.93741256 9.9955614e-05
0 0 1 0.9999 0.015721828
-0.19134153 0.038060218 0.98078525 0.93741256 0.031343706
0 0 -1 9.998337e-05 0.015721872
-0.98078483 2.682209e-07 -0.19509032 0.4375125 9.997747e-05
-0.9619392 0.19134189 -0.19509032 0.4375125 0.031343788
-0.38268325 5.2154064e-08 0.9238795 0.8749251 9.995835e-05
-0.3753301 0.07465785 0.9238795 0.8749251 0.03134377
-0.92387915 1.4901161e-08 -0.38268346 0.37502494 9.99802e-05
-0.90612704 0.1802399 -0.38268346 0.37502494 0.031343732
-0.55556977 1.4901161e-07 0.8314696 0.8124376 9.996108e-05
-0.54489464 0.108386435 0.8314696 0.81243765 0.031343773
-0.8314692 1.6391277e-07 -0.55557024 0.31253743 9.9982935e-05
-0.81549263 0.16221176 -0.55557024 0.31253737 0.03134379
-0.92387843 0.3826835 0 0.5 0.0625876
-0.90612686 0.37533033 -0.19509032 0.4375125 0.06258754
-0.18023978 0.07465778 0.98078525 0.93741256 0.062587455
-0.3535532 0.14644659 0.9238795 0.8749251 0.06258746
-0.853553 0.35355324 -0.38268346 0.37502494 0.062587485
-0.51327944 0.21260749 0.8314696 0.81243765 0.06258752
-0.7681772 0.31818962 -0.55557024 0.31253737 0.062587544
-0.6532813 0.270598 0.70710677 0.74995005 0.06258746
-0.6532813 0.270598 -0.70710677 0.25004998 0.062587485
-0.7681772 0.31818962 0.55557024 0.6874626 0.06258753
-0.51327944 0.21260749 -0.8314696 0.18756244 0.06258755
-0.853553 0.35355324 0.38268346 0.62497514 0.06258747
-0.3535532 0.14644659 -0.9238795 0.12507498 0.06258749
-0.90612686 0.37533033 0.19509032 0.56248754 0.06258754
-0.18023978 0.07465778 -0.98078525 0.062587425 0.06258749
0 0 1 0.9999 0.04696558
0 0 -1 9.998474e-05 0.04696562
-0.5879376 0.3928474 -0.70710677 0.25004998 0.09383124
-0.46193922 0.30865815 -0.8314696 0.18756244 0.0938313
-0.69134116 0.46193963 0.55557024 0.6874626 0.09383122
-0.7681774 0.51327974 0.38268346 0.62497514 0.09383122
-0.31818944 0.21260746 -0.9238795 0.12507498 0.09383124
-0.8154926 0.54489505 0.19509032 0.56248754 0.093831226
-0.16221151 0.10838629 -0.98078525 0.06258743 0.09383125
-0.83146846 0.55557007 0 0.5 0.093831286
0 0 1 0.9999 0.07820933
-0.16221151 0.10838629 0.98078525 0.93741256 0.09383121
0 0 -1 9.99861e-05 0.07820937
-0.8154926 0.54489505 -0.19509032 0.4375125 0.093831226
-0.31818944 0.21260746 0.9238795 0.8749251 0.09383121
-0.7681774 0.51327974 -0.38268346 0.37502494 0.09383123
-0.46193922 0.30865815 0.8314696 0.81243765 0.09383127
-0.69134116 0.46193963 -0.55557024 0.31253737 0.09383123
-0.5879376 0.3928474 0.70710677 0.74995005 0.09383122
-0.69351935 0.6935197 -0.19509032 0.4375125 0.12507504
-0.65328115 0.65328115 -0.38268346 0.37502494 0.12507498
-0.27059788 0.27059793 0.9238795 0.8749251 0.12507497
-0.39284694 0.39284724 0.8314696 0.81243765 0.12507509
-0.58793724 0.58793753 -0.55557024 0.31253737 0.12507504
-0.49999982 0.49999988 0.70710677 0.74995005 0.12507497
-0.49999982 0.49999988 -0.70710677 0.25005 0.12507498
-0.58793724 0.58793753 0.55557024 0.6874626 0.12507503
-0.39284694 0.39284724 -0.8314696 0.18756244 0.12507512
-0.65328115 0.65328115 0.38268346 0.62497514 0.12507497
-0.27059788 0.27059793 -0.9238795 0.125075 0.125075
-0.69351935 0.6935197 0.19509032 0.56248754 0.12507504
-0.13794954 0.13794957 -0.98078525 0.06258743 0.125075
-0.7071057 0.70710635 0 0.5 0.1250751
0 0 1 0.99990004 0.10945308
-0.13794954 0.13794957 0.98078525 0.93741256 0.12507495
0 0 -1 9.998747e-05 0.10945313
-0.3086578 0.46193942 -0.8314696 0.18756232 0.1563188
-0.21260737 0.3181895 -0.9238795 0.125075 0.15631874
-0.5132797 0.7681774 0.38268346 0.62497514 0.15631872
-0.5448946 0.8154928 0.19509032 0.56248754 0.15631878
-0.10838625 0.16221152 -0.98078525 0.06258743 0.15631875
-0.55556923 0.83146894 0 0.5 0.15631884
0 0 1 0.99990004 0.14069684
-0.10838625 0.16221152 0.98078525 0.93741256 0.15631871
0 0 -1 9.9988836e-05 0.14069687
-0.5448946 0.8154928 -0.19509032 0.4375125 0.15631878
-0.21260737 0.3181895 0.9238795 0.8749251 0.15631871
-0.5132797 0.7681774 -0.38268346 0.37502494 0.15631874
-0.3086578 0.46193942 0.8314696 0.8124377 0.15631877
-0.46193928 0.69134134 -0.55557024 0.31253737 0.1563188
-0.3928473 0.58793765 0.70710677 0.74995005 0.15631872
-0.3928473 0.58793765 -0.70710677 0.25005 0.15631874
-0.46193928 0.69134134 0.55557024 0.6874626 0.15631878
-0.14644648 0.35355324 0.9238795 0.8749251 0.18756247
-0.2126071 0.5132795 0.8314696 0.8124377 0.18756253
-0.35355318 0.853553 -0.38268346 0.37502494 0.18756248
-0.3181892 0.7681773 -0.55557024 0.31253737 0.18756254
-0.2705979 0.65328133 0.70710677 0.74995005 0.18756247
-0.2705979 0.65328133 -0.70710677 0.25005 0.1875625
-0.3181892 0.7681773 0.55557024 0.6874626 0.18756253
-0.2126071 0.5132795 -0.8314696 0.18756232 0.18756256
-0.35355318 0.853553 0.38268346 0.62497514 0.18756248
-0.14644648 0.35355324 -0.9238795 0.125075 0.1875625
-0.3753298 0.906127 0.19509032 0.56248754 0.18756254
-0.07465774 0.18023977 -0.98078525 0.06258737 0.1875625
-0.38268256 0.9238786 0 0.5 0.1875626
0 0 1 0.99990004 0.17194058
-0.07465774 0.18023977 0.98078525 0.9374126 0.18756247
0 0 -1 9.99902e-05 0.17194062
-0.3753298 0.906127 -0.19509032 0.43751252 0.18756254
-0.18023981 0.906127 0.38268346 0.62497514 0.21880622
-0.19134133 0.9619392 0.19509032 0.56248754 0.21880628
-0.07465773 0.3753301 -0.9238795 0.125075 0.21880631
-0.038060177 0.1913415 -0.98078525 0.06258737 0.21880625
-0.19508962 0.9807842 0 0.5 0.21880636
0 0 1 0.99990004 0.20318434
-0.038060177 0.1913415 0.98078525 0.9374126 0.2188062
0 0 -1 9.9991565e-05 0.20318438
-0.19134133 0.9619392 -0.19509032 0.43751252 0.2188063
-0.07465773 0.3753301 0.9238795 0.8749251 0.21880627
-0.18023981 0.906127 -0.38268346 0.37502494 0.21880624
-0.10838604 0.5448945 0.8314696 0.8124377 0.21880628
-0.16221133 0.8154926 -0.55557024 0.31253737 0.2188063
-0.13794957 0.6935198 0.70710677 0.74995 0.21880622
-0.13794957 0.6935198 -0.70710677 0.25005 0.21880624
-0.16221133 0.8154926 0.55557024 0.6874626 0.21880628
-0.10838604 0.5448945 -0.8314696 0.18756232 0.2188063
0 0 1 0.99990004 0.23442808
0 0 -1 9.999293e-05 0.23442812
4 0 1 2 3
4 4 5 6 7
4 8 0 3 9
4 10 4 7 11
4 12 8 9 13
4 14 10 11 15
4 16 12 13 17
4 18 14 15 19
4 20 16 17 21
4 22 18 19 23
4 24 20 21 25
3 26 27 28
3 29 22 23
4 30 24 25 31
4 1 26 28 2
4 5 30 31 6
4 2 28 32 33
4 6 31 34 35
4 3 2 33 36
4 7 6 35 37
4 9 3 36 38
4 11 7 37 39
4 13 9 38 40
4 15 11 39 41
4 17 13 40 42
4 19 15 41 43
4 21 17 42 44
4 23 19 43 45
4 25 21 44 46
3 28 47 32
3 48 23 45
4 31 25 46 34
4 42 40 49 50
4 43 41 51 52
4 44 42 50 53
4 45 43 52 54
4 46 44 53 55
3 32 56 57
3 58 45 54
4 34 46 55 59
4 33 32 57 60
4 35 34 59 61
4 36 33 60 62
4 37 35 61 63
4 38 36 62 64
4 39 37 63 65
4 40 38 64 49
4 41 39 65 51
4 61 59 66 67
4 62 60 68 69
4 63 61 67 70
4 64 62 69 71
4 65 63 70 72
4 49 64 71 73
4 51 65 72 74
4 50 49 73 75
4 52 51 74 76
4 53 50 75 77
4 54 52 76 78
4 55 53 77 79
3 57 80 81
3 82 54 78
4 59 55 79 66
4 60 57 81 68
4 76 74 83 84
4 77 75 85 86
4 78 76 84 87
4 79 77 86 88
3 81 89 90
3 91 78 87
4 66 79 88 92
4 68 81 90 93
4 67 66 92 94
4 69 68 93 95
4 70 67 94 96
4 71 69 95 97
4 72 70 96 98
4 73 71 97 99
4 74 72 98 83
4 75 73 99 85
4 95 93 100 101
4 96 94 102 103
4 97 95 101 104
4 98 96 103 105
4 99 97 104 106
4 83 98 105 107
4 85 99 106 108
4 84 83 107 109
4 86 85 108 110
4 87 84 109 111
4 88 86 110 112
3 90 113 114
3 115 87 111
4 92 88 112 116
4 93 90 114 100
4 94 92 116 102
4 110 108 117 118
4 111 109 119 120
4 112 110 118 121
3 114 122 123
3 124 111 120
4 116 112 121 125
4 100 114 123 126
4 102 116 125 127
4 101 100 126 128
4 103 102 127 129
4 104 101 128 130
4 105 103 129 131
4 106 104 130 132
4 107 105 131 133
4 108 106 132 117
4 109 107 133 119
4 129 127 134 135
4 130 128 136 137
4 131 129 135 138
4 132 130 137 139
4 133 131 138 140
4 117 132 139 141
4 119 133 140 142
4 118 117 141 143
4 120 119 142 144
4 121 118 143 145
3 123 146 147
3 148 120 144
4 125 121 145 149
4 126 123 147 150
4 127 125 149 134
4 128 126 150 136
4 144 142 151 152
4 145 143 153 154
3 147 155 156
3 157 144 152
4 149 145 154 158
4 150 147 156 159
4 134 149 158 160
4 136 150 159 161
4 135 134 160 162
4 137 136 161 163
4 138 135 162 164
4 139 137 163 165
4 140 138 164 166
4 141 139 165 167
4 142 140 166 151
4 143 141 167 153
4 164 162 168 169
4 165 163 170 171
4 166 164 169 172
4 167 165 171 173
4 151 166 172 174
4 153 167 173 175
4 152 151 174 176
4 154 153 175 177
3 156 178 179
3 180 152 176
4 158 154 177 181
4 159 156 179 182
4 160 158 181 183
4 161 159 182 184
4 162 160 183 168
4 163 161 184 170
3 179 185 186
3 187 176 188
4 181 177 189 190
4 182 179 186 191
4 183 181 190 192
4 184 182 191 193
4 168 183 192 194
4 170 184 193 195
4 169 168 194 196
4 171 170 195 197
4 172 169 196 198
4 173 171 197 199
4 174 172 198 200
4 175 173 199 201
4 176 174 200 188
4 177 175 201 189
4 197 195 202 203
4 198 196 204 205
4 199 197 203 206
4 200 198 205 207
4 201 199 206 208
4 188 200 207 209
4 189 201 208 210
3 186 211 212
3 213 188 209
4 190 189 210 214
4 191 186 212 215
4 192 190 214 216
4 193 191 215 217
4 194 192 216 218
4 195 193 217 202
4 196 194 218 204
4 214 210 219 220
4 215 212 221 222
4 216 214 220 223
4 217 215 222 224
4 218 216 223 225
4 202 217 224 226
4 204 218 225 227
4 203 202 226 228
4 205 204 227 229
4 206 203 228 230
4 207 205 229 231
4 208 206 230 232
4 209 207 231 233
4 210 208 232 219
3 212 234 221
3 235 209 233
4 229 227 236 237
4 230 228 238 239
4 231 229 237 240
4 232 230 239 241
4 233 231 240 242
4 219 232 241 243
3 221 244 245
3 246 233 242
4 220 219 243 247
4 222 221 245 248
4 223 220 247 249
4 224 222 248 250
4 225 223 249 251
4 226 224 250 252
4 227 225 251 236
4 228 226 252 238
4 248 245 253 254
4 249 247 255 256
4 250 248 254 257
4 251 249 256 258
4 252 250 257 259
4 236 251 258 260
4 238 252 259 261
4 237 236 260 262
4 239 238 261 263
4 240 237 262 264
4 241 239 263 265
4 242 240 264 266
4 243 241 265 267
3 245 268 253
3 269 242 266
4 247 243 267 255
4 263 261 270 271
4 264 262 272 273
4 265 263 271 274
4 266 264 273 275
4 267 265 274 276
3 253 277 278
3 279 266 275
4 255 267 276 280
4 254 253 278 281
4 256 255 280 282
4 257 254 281 283
4 258 256 282 284
4 259 257 283 285
4 260 258 284 286
4 261 259 285 270
4 262 260 286 272
4 282 280 287 288
4 283 281 289 290
4 284 282 288 291
4 285 283 290 292
4 286 284 291 293
4 270 285 292 294
4 272 286 293 295
4 271 270 294 296
4 273 272 295 297
4 274 271 296 298
4 275 273 297 299
4 276 274 298 300
3 278 301 302
3 303 275 299
4 280 276 300 287
4 281 278 302 289
4 297 295 304 305
4 298 296 306 307
4 299 297 305 308
4 300 298 307 309
3 302 310 311
3 312 299 308
4 287 300 309 313
4 289 302 311 314
4 288 287 313 315
4 290 289 314 316
4 291 288 315 317
4 292 290 316 318
4 293 291 317 319
4 294 292 318 320
4 295 293 319 304
4 296 294 320 306
4 317 315 321 322
4 318 316 323 324
4 319 317 322 325
4 320 318 324 326
4 304 319 325 327
4 306 320 326 328
4 305 304 327 329
4 307 306 328 330
4 308 305 329 331
4 309 307 330 332
3 311 333 334
3 335 308 331
4 313 309 332 336
4 314 311 334 337
4 315 313 336 321
4 316 314 337 323
4 331 329 338 339
4 332 330 340 341
3 334 342 343
3 344 331 339
4 336 332 341 345
4 337 334 343 346
4 321 336 345 347
4 323 337 346 348
4 322 321 347 349
4 324 323 348 350
4 325 322 349 351
4 326 324 350 352
4 327 325 351 353
4 328 326 352 354
4 329 327 353 338
4 330 328 354 340
4 350 348 355 356
4 351 349 357 358
4 352 350 356 359
4 353 351 358 360
4 354 352 359 361
4 338 353 360 362
4 340 354 361 363
4 339 338 362 364
4 341 340 363 365
3 343 366 367
3 368 339 364
4 345 341 365 369
4 346 343 367 370
4 347 345 369 371
4 348 346 370 355
4 349 347 371 357
4 365 363 372 373
3 367 374 375
3 376 364 377
4 369 365 373 378
4 370 367 375 379
4 371 369 378 380
4 355 370 379 381
4 357 371 380 382
4 356 355 381 383
4 358 357 382 384
4 359 356 383 385
4 360 358 384 386
4 361 359 385 387
4 362 360 386 388
4 363 361 387 372
4 364 362 388 377
4 384 382 389 390
4 385 383 391 392
4 386 384 390 393
4 387 385 392 394
4 388 386 393 395
4 372 387 394 396
4 377 388 395 397
4 373 372 396 398
3 375 399 400
3 401 377 397
4 378 373 398 402
4 379 375 400 403
4 380 378 402 404
4 381 379 403 405
4 382 380 404 389
4 383 381 405 391
3 400 406 407
3 408 397 409
4 402 398 410 411
4 403 400 407 412
4 404 402 411 413
4 405 403 412 414
4 389 404 413 415
4 391 405 414 416
4 390 389 415 417
4 392 391 416 418
4 393 390 417 419
4 394 392 418 420
4 395 393 419 421
4 396 394 420 422
4 397 395 421 409
4 398 396 422 410
4 423 424 425 426
4 427 428 429 430
4 431 423 426 432
4 433 427 430 434
4 435 431 432 436
4 437 433 434 438
4 439 435 436 440
3 441 442 443
3 444 437 438
4 445 439 440 446
4 447 441 443 448
4 449 445 446 450
4 451 447 448 452
4 453 449 450 454
4 424 451 452 425
4 428 453 454 429
4 446 440 455 456
4 448 443 457 458
4 450 446 456 459
4 452 448 458 460
4 454 450 459 461
4 425 452 460 462
4 429 454 461 463
4 426 425 462 464
4 430 429 463 465
4 432 426 464 466
4 434 430 465 467
4 436 432 466 468
4 438 434 467 469
4 440 436 468 455
3 443 470 457
3 471 438 469
4 465 463 472 473
4 466 464 474 475
4 467 465 473 476
4 468 466 475 477
4 469 467 476 478
4 455 468 477 479
3 457 480 481
3 482 469 478
4 456 455 479 483
4 458 457 481 484
4 459 456 483 485
4 460 458 484 486
4 461 459 485 487
4 462 460 486 488
4 463 461 487 472
4 464 462 488 474
4 485 483 489 490
4 486 484 491 492
4 487 485 490 493
4 488 486 492 494
4 472 487 493 495
4 474 488 494 496
4 473 472 495 497
4 475 474 496 498
4 476 473 497 499
4 477 475 498 500
4 478 476 499 501
4 479 477 500 502
3 481 503 504
3 505 478 501
4 483 479 502 489
4 484 481 504 491
4 499 497 506 507
4 500 498 508 509
4 501 499 507 510
4 502 500 509 511
3 504 512 513
3 514 501 510
4 489 502 511 515
4 491 504 513 516
4 490 489 515 517
4 492 491 516 518
4 493 490 517 519
4 494 492 518 520
4 495 493 519 521
4 496 494 520 522
4 497 495 521 506
4 498 496 522 508
4 518 516 523 524
4 519 517 525 526
4 520 518 524 527
4 521 519 526 528
4 522 520 527 529
4 506 521 528 530
4 508 522 529 531
4 507 506 530 532
4 509 508 531 533
4 510 507 532 534
4 511 509 533 535
3 513 536 537
3 538 510 534
4 515 511 535 539
4 516 513 537 523
4 517 515 539 525
4 533 531 540 541
4 534 532 542 543
4 535 533 541 544
3 537 545 546
3 547 534 543
4 539 535 544 548
4 523 537 546 549
4 525 539 548 550
4 524 523 549 551
4 526 525 550 552
4 527 524 551 553
4 528 526 552 554
4 529 527 553 555
4 530 528 554 556
4 531 529 555 540
4 532 530 556 542
4 552 550 5 4
4 553 551 0 8
4 554 552 4 10
4 555 553 8 12
4 556 554 10 14
4 540 555 12 16
4 542 556 14 18
4 541 540 16 20
4 543 542 18 22
4 544 541 20 24
3 546 557 26
3 558 543 22
4 548 544 24 30
4 549 546 26 1
4 550 548 30 5
4 551 549 1 0
